<svg xmlns="http://www.w3.org/2000/svg" viewBox="0 0 128.09 128.19"><defs><style>.cls-1,.cls-7{fill:#fff;}.cls-1,.cls-2,.cls-3,.cls-4,.cls-5,.cls-6{fill-rule:evenodd;}.cls-2{fill:#4c466a;}.cls-3{fill:#fcd1c8;}.cls-4{fill:#f68b85;}.cls-5{fill:#f8a8a0;}.cls-6{fill:#675d82;}</style></defs><g id="Layer_2" data-name="Layer 2"><g id="Layer_1-2" data-name="Layer 1"><path class="cls-1" d="M64.06,120.26A56.17,56.17,0,1,0,7.89,64.09,56.28,56.28,0,0,0,64.06,120.26Z"/><path class="cls-2" d="M81.47,69s2.46-5.44,5.68-6.91,12,1.17,14.89,4.31-28,29-35.13,33-10.14-1.95-10.14-1.95-4.18-8,0-11.67S82,68.53,81.47,69Z"/><path class="cls-3" d="M84.08,71.19a2.23,2.23,0,0,0,1.62.15c1-.26,2.12-.69,2.12-.69l5,9.48L82.9,92.55l-8.32,3.32-8.15-2-3.29-4.42s1.14-1,1.25-1.67a19.15,19.15,0,0,1,2.71-2.44L55.24,73.23a11.06,11.06,0,0,1,.17-15.59h0A11.06,11.06,0,0,1,71,57.81Z"/><path class="cls-4" d="M68.75,94.46l-2.32-.57-3.29-4.42s1.14-1,1.25-1.67a19.15,19.15,0,0,1,2.71-2.44l-7.54-7.71C64.92,70.8,71.92,63.8,77.64,64.6l4.88,5c-.25,3-.83,9.81-1.38,13.31A14.11,14.11,0,0,1,68.75,94.46Z"/><path class="cls-2" d="M87.48,70.54l.07,0c2.21-.73,24.41-8.39,24.41-8.39s-2.42,12.09,4.45,18.81c.31.31.63.6,1,.88a56.18,56.18,0,0,1-53.31,38.44c-.83,0-1.65,0-2.47-.06-3.77-4.37-7.76-9.4-8-11.1-.39-2.89-.84-8.31-.18-10s6.46-6.92,10.35-10.46C74.47,99.33,92.54,89.12,87.48,70.54Z"/><path class="cls-3" d="M40.63,76.63s-3.32-.21-4.34,1-.17,4.87,1.7,6.54,9.92,6,11.36.12S40.63,76.63,40.63,76.63Z"/><path class="cls-5" d="M44,77.35a.56.56,0,0,1,.53.39.31.31,0,0,1-.29.38h0s4.26,6.54,2.61,6.44a9.26,9.26,0,0,1-5-1.2c-1.68-1.09-1.65-3.58-2.45-3.52s-.71,1-.71,1.13h0a5.15,5.15,0,0,0,.45,1.55.32.32,0,0,1-.23.47.59.59,0,0,1-.6-.3s-1.36-2.73.27-4.13S43.94,77.35,44,77.35Z"/><path class="cls-3" d="M70.62,48.56s0-3.33,1.23-4.27,4.88.16,6.42,2.13,5.32,10.3-.63,11.35S70.62,48.56,70.62,48.56Z"/><path class="cls-5" d="M71.12,51.92a.55.55,0,0,0,.36.55.31.31,0,0,0,.4-.26h0s6.23,4.68,6.25,3a9.42,9.42,0,0,0-.87-5.06c-1-1.75-3.47-1.88-3.35-2.68s1.08-.64,1.18-.63h0a4.92,4.92,0,0,1,1.52.54.31.31,0,0,0,.48-.19.57.57,0,0,0-.26-.62s-2.63-1.54-4.13,0S71.12,51.91,71.12,51.92Z"/><path class="cls-3" d="M35,40.53c-19.84,19.12-2.23,32,11.36,43a22.76,22.76,0,0,0,11.6,5s10.32-.33,13.26-1.12a13.1,13.1,0,0,0,8.14-7.62c1-2.87,2-13.16,2-13.16a22.78,22.78,0,0,0-4.22-11.9C67.06,40.43,55.37,22,35,40.53Z"/><path class="cls-5" d="M63.81,47.46s-7.69,13.23-19.28,4.1c0,0,1.37,5.23-3.63,6s.82,1.58.82,1.58,2.76,8.86-4,12.92-5.63-13.24-5.5-14,7.68-11,7.68-11L61,39.66S63.9,47.43,63.81,47.46Z"/><path class="cls-5" d="M54.75,70.09c-5.22,0-8.18,5.29-5.74,6.46C50.48,72.43,54.39,71.53,54.75,70.09Z"/><path class="cls-2" d="M63.59,56.56h0a2.48,2.48,0,0,1,3.5.12l1.62,1.73a2.49,2.49,0,0,1-.11,3.5h0a2.49,2.49,0,0,1-3.5-.12l-1.62-1.73A2.48,2.48,0,0,1,63.59,56.56Z"/><path class="cls-2" d="M59.89,56.67a1.9,1.9,0,0,1-.9.72,2.16,2.16,0,0,1-1.65-.34c-.13-.17.32-.13.77-1.2s2.46-4.47,6.23-4.28c.66,0,.65.53.1.78A7.45,7.45,0,0,0,59.89,56.67Z"/><path class="cls-2" d="M50.66,69.29a1.94,1.94,0,0,0,.78-.86,2.18,2.18,0,0,0-.23-1.67c-.17-.13-.16.32-1.25.69s-4.62,2.17-4.69,5.94c0,.65.49.68.78.15A7.42,7.42,0,0,1,50.66,69.29Z"/><path class="cls-2" d="M51.41,38.65c.36,0,.71-.09,1.06-.11,1.78,1.8,4.23,4.28,5,5a5.64,5.64,0,0,0,3.46,1.12s1.56,0,3,.05A5.64,5.64,0,0,1,66.6,46c.49.51,1,1,1.48,1.6,3,3.35,6,2.63,6,2.63s-3.2-4.11-2.91-4.88C63.14,37,59,28.94,46.69,32.42a30.3,30.3,0,0,0-12.81,6.94A30.42,30.42,0,0,0,26.1,51.69C21.82,63.78,29.58,68.4,37.39,77c.78-.24,4.68,3.22,4.68,3.22S43,77.23,39.83,74c-.52-.54-1-1.06-1.5-1.58a5.54,5.54,0,0,1-1.1-2.83c0-1.4.15-3,.15-3a5.72,5.72,0,0,0-.9-3.54c-.66-.77-3-3.38-4.64-5.28,0-.34.1-.69.17-1a23.17,23.17,0,0,1,7-11.94A23.07,23.07,0,0,1,51.41,38.65Z"/><path class="cls-3" d="M62.4,71.27c-.38,0-.89-1-1.17-1.75-.22-.55-.28-.84-.14-.93s.38-.07.9.17c.69.31,1.65.85,1.66,1.25A1.53,1.53,0,0,1,62.4,71.27Z"/><path class="cls-4" d="M71.11,71.71a.57.57,0,0,0-.23-.77.58.58,0,0,0-.77.24s-2.85,5.56-7.35,6.61a.56.56,0,0,0-.42.68.57.57,0,0,0,.68.42C68,77.73,71.11,71.72,71.11,71.71Z"/><path class="cls-4" d="M70.75,76.55a.56.56,0,1,0-1-.53,5.91,5.91,0,0,1-2.32,2.14.56.56,0,0,0-.24.76.56.56,0,0,0,.76.25A7.12,7.12,0,0,0,70.75,76.55Z"/><path class="cls-4" d="M58.48,66.66a.57.57,0,0,0-.75-.26.58.58,0,0,0-.27.76l2.89,5.92a.64.64,0,0,0,.24.25c.3.19,1.74.94,4-.4a.57.57,0,0,0,.18-.78A.56.56,0,0,0,64,72c-1.49.9-2.37.62-2.65.48Z"/><path class="cls-2" d="M54.29,72.38a1.94,1.94,0,0,0,.77-.86,2.16,2.16,0,0,0-.23-1.67c-.17-.14-.15.31-1.24.69S49,72.7,48.9,76.48c0,.65.49.68.77.15A7.43,7.43,0,0,1,54.29,72.38Z"/><path class="cls-6" d="M120.16,61.42a17.83,17.83,0,0,0-8.21.72s-3.7,9.35,4.94,21.06a56,56,0,0,0,3.34-19.11C120.23,63.2,120.2,62.3,120.16,61.42Z"/><path class="cls-6" d="M48.07,118c.6-7.29,2.15-14,5.34-18.83-.65,1.73.05,6.89.44,9.78.26,1.92,3.86,6.65,7.92,11.31A56.31,56.31,0,0,1,48.07,118Z"/><path class="cls-6" d="M84.43,113.69A14,14,0,0,0,82.94,117a54.89,54.89,0,0,0,7.9-3.52,8.88,8.88,0,0,1,1.73-4,10.46,10.46,0,0,1,3.85-3c.53-.25,1.12-.53,1.79-.82l1.51-.66,1,1.69a56.51,56.51,0,0,0,7.95-8.41L94.4,105.11A30,30,0,0,0,89,108.5,18.93,18.93,0,0,0,84.43,113.69Z"/><path class="cls-6" d="M99,67.92a.47.47,0,0,0-.94-.09S96.57,84.6,84.35,92.62a.47.47,0,0,0-.14.65.48.48,0,0,0,.65.13C97.47,85.14,99,68,99,67.92ZM59.57,95.84a.47.47,0,1,0-.29.9s9.43,3.11,23.43-2.13a.47.47,0,0,0-.33-.88C68.69,98.85,59.59,95.85,59.57,95.84Z"/><path class="cls-6" d="M37.86,69.45s1.75,4.34-.32,6.5-7,.84-9.87-4a7.87,7.87,0,0,1-6.23-4.7c-1.7-4.29-.7-14.88-.7-18.83s2.11-6.3,6.11-6.94c0,0-1.25-5.39.86-9.36S45.59,22.84,51.56,24a38.38,38.38,0,0,1,14.12,6.15C69,32.47,70.82,38.87,71.43,41a2.65,2.65,0,0,1-2.38,3.36s.12,1.75-1.48,1.8c0,0,.49,2.74-1.78,3s-4.63-1.54-4.63-1.54C58.64,53,49.38,58,43.13,50.74c1.22,2.25.09,5.57-2.86,4.08C40.27,54.82,46.14,63.42,37.86,69.45Z"/><path class="cls-6" d="M48.35,23.91a13.05,13.05,0,0,1,3.21.12,35.89,35.89,0,0,1,8.67,3c-1.31,4.74-5.9,14.66-20.95,10.45C39.28,37.44,51.53,36.32,48.35,23.91Z"/><path class="cls-7" d="M64.09,128.19A64.09,64.09,0,0,1,18.76,18.8a.45.45,0,0,1,.63.63A63.17,63.17,0,0,0,100,116a.46.46,0,0,1,.63.11.44.44,0,0,1-.12.62A63.73,63.73,0,0,1,64.09,128.19Zm39-13.41a.46.46,0,0,1-.35-.17.45.45,0,0,1,.08-.63c.74-.58,1.48-1.18,2.2-1.79a.45.45,0,1,1,.58.68c-.73.62-1.48,1.23-2.23,1.82A.49.49,0,0,1,103.08,114.78Zm6-5.26a.44.44,0,0,1-.32-.13.45.45,0,0,1,0-.63,63.17,63.17,0,0,0-80.63-96.6.44.44,0,0,1-.62-.12.45.45,0,0,1,.11-.62,64.06,64.06,0,0,1,81.77,98A.42.42,0,0,1,109,109.52ZM22.82,16.11a.46.46,0,0,1-.34-.16.44.44,0,0,1,.05-.63c.73-.63,1.48-1.23,2.23-1.82a.45.45,0,1,1,.55.7c-.74.58-1.48,1.18-2.2,1.8A.48.48,0,0,1,22.82,16.11Z"/></g></g></svg>