<svg id="Capa_1" enable-background="new 0 0 512 512" height="512" viewBox="0 0 512 512" width="512" xmlns="http://www.w3.org/2000/svg"><g><g><g><path d="m256 141.853v23.273h35.463v102.284h99.74v-102.284h35.463v-23.273c0-29.379-23.816-53.195-53.195-53.195h-64.277c-29.378 0-53.194 23.816-53.194 53.195z" fill="#95d6a4"/><g fill="#eaac9d"><path d="m391.203 165.115h35.463v69.818h-35.463z"/><path d="m85.333 165.115h35.463v69.818h-35.463z"/><path d="m220.537 165.115h70.926v69.818h-70.926z"/></g><path d="m324.71 169.558c0-32.05-22.059-59.039-51.79-66.597-10.406 9.71-16.92 23.537-16.92 38.892v23.273h35.463v63.261c19.91-12.047 33.247-33.908 33.247-58.829z" fill="#78c2a4"/><circle cx="341.333" cy="44.329" fill="#ffddce" r="44.329"/><path d="m361.452 4.832c3.083 6.04 4.832 12.873 4.832 20.119 0 24.482-19.847 44.329-44.329 44.329-7.246 0-14.079-1.75-20.119-4.832 7.333 14.366 22.26 24.21 39.497 24.21 24.482 0 44.329-19.847 44.329-44.329 0-17.236-9.844-32.164-24.21-39.497z" fill="#ffcbbe"/></g><g><path d="m85.333 141.853v23.273h35.463v102.284h99.74v-102.284h35.464v-23.273c0-29.379-23.816-53.195-53.195-53.195h-64.277c-29.379 0-53.195 23.816-53.195 53.195z" fill="#e7a561"/><path d="m187.29 169.558c0-32.05 22.059-59.039 51.79-66.597 10.405 9.71 16.92 23.536 16.92 38.891v23.273h-35.463v63.261c-19.91-12.046-33.247-33.907-33.247-58.828z" fill="#e49542"/><circle cx="170.667" cy="44.329" fill="#ffddce" r="44.329"/><path d="m190.785 4.832c3.083 6.04 4.832 12.873 4.832 20.119 0 24.482-19.847 44.329-44.329 44.329-7.246 0-14.079-1.75-20.119-4.832 7.333 14.366 22.26 24.21 39.497 24.21 24.482 0 44.329-19.847 44.329-44.329.001-17.236-9.843-32.164-24.21-39.497z" fill="#ffcbbe"/></g><g><path d="m170.667 267.082v23.273h35.463v69.818h99.74v-69.818h35.463v-23.273c0-29.379-23.816-53.195-53.195-53.195h-64.277c-29.378 0-53.194 23.817-53.194 53.195z" fill="#90d8f9"/><g fill="#6bbef6"><path d="m283.706 360.173h22.164v-80.9c0-6.121-4.962-11.082-11.082-11.082-6.121 0-11.082 4.962-11.082 11.082z"/><path d="m288.139 213.887h-22.164c29.379 0 53.195 23.816 53.195 53.195v23.273h22.165v-23.273c-.002-29.378-23.818-53.195-53.196-53.195z"/></g><g fill="#ffddce"><path d="m305.87 290.355h35.463v69.818h-35.463z"/><path d="m170.667 290.355h35.463v69.818h-35.463z"/><circle cx="256" cy="169.558" r="44.329"/></g><path d="m276.119 130.062c3.083 6.04 4.832 12.873 4.832 20.118 0 24.482-19.847 44.329-44.329 44.329-7.246 0-14.079-1.75-20.119-4.832 7.333 14.366 22.26 24.21 39.497 24.21 24.482 0 44.329-19.847 44.329-44.329 0-17.236-9.844-32.163-24.21-39.496z" fill="#ffcbbe"/></g><g><path d="m341.333 267.082v23.273h35.463v69.818h99.74v-69.818h35.464v-23.273c0-29.379-23.816-53.195-53.195-53.195h-64.277c-29.379 0-53.195 23.817-53.195 53.195z" fill="#e28086"/><g fill="#dd636e"><path d="m454.372 360.173h22.165v-80.9c0-6.121-4.962-11.082-11.082-11.082-6.121 0-11.082 4.962-11.082 11.082v80.9z"/><path d="m458.805 213.887h-22.165c29.379 0 53.195 23.816 53.195 53.195v23.273h22.165v-23.273c0-29.378-23.816-53.195-53.195-53.195z"/></g><g fill="#ffddce"><path d="m512 290.355h-35.463v69.818h25.161c5.69 0 10.302-4.612 10.302-10.302z"/><path d="m341.333 290.355h35.463v69.818h-35.463z"/><circle cx="426.667" cy="169.558" r="44.329"/></g><path d="m446.785 130.062c3.083 6.04 4.832 12.873 4.832 20.118 0 24.482-19.847 44.329-44.329 44.329-7.246 0-14.079-1.75-20.119-4.832 7.333 14.366 22.26 24.21 39.497 24.21 24.482 0 44.329-19.847 44.329-44.329.001-17.236-9.843-32.163-24.21-39.496z" fill="#ffcbbe"/></g><g><path d="m0 267.082v23.273h35.463v69.818h99.74v-69.818h35.463v-23.273c0-29.379-23.816-53.195-53.195-53.195h-64.276c-29.379 0-53.195 23.817-53.195 53.195z" fill="#ac80dd"/><g fill="#9d66d5"><path d="m113.039 360.173h22.164v-80.9c0-6.121-4.962-11.082-11.082-11.082-6.121 0-11.082 4.962-11.082 11.082z"/><path d="m117.472 213.887h-22.165c29.379 0 53.195 23.816 53.195 53.195v23.273h22.165v-23.273c0-29.378-23.816-53.195-53.195-53.195z"/></g><g fill="#ffddce"><path d="m135.203 290.355h35.463v69.818h-35.463z"/><path d="m35.463 290.355h-35.463v59.516c0 5.69 4.612 10.302 10.302 10.302h25.161z"/><circle cx="85.333" cy="169.558" r="44.329"/></g><path d="m105.452 130.062c3.083 6.04 4.832 12.873 4.832 20.118 0 24.482-19.847 44.329-44.329 44.329-7.246 0-14.079-1.75-20.119-4.832 7.333 14.366 22.26 24.21 39.497 24.21 24.482 0 44.329-19.847 44.329-44.329 0-17.236-9.844-32.163-24.21-39.496z" fill="#ffcbbe"/></g></g><g><path d="m190.677 290.355v-22.164c0-4.267 3.459-7.726 7.726-7.726s7.726 3.459 7.726 7.726v22.164z" fill="#6bbef6"/><path d="m361.344 290.355v-22.164c0-4.267 3.459-7.726 7.726-7.726s7.726 3.459 7.726 7.726v22.164z" fill="#dd636e"/><path d="m20.01 290.355v-22.164c0-4.267 3.459-7.726 7.726-7.726s7.726 3.459 7.726 7.726v22.164z" fill="#9d66d5"/></g><g><path d="m162.94 290.355h15.453v69.56h-15.453z" fill="#ffcbbe"/></g><g><path d="m333.607 290.355h15.453v70.075h-15.453z" fill="#ffcbbe"/></g><g><circle cx="256" cy="407.935" fill="#e28086" r="104.065"/><path d="m316.547 323.323c12.23 17.061 19.453 37.954 19.453 60.547 0 57.474-46.591 104.065-104.065 104.065-22.593 0-43.486-7.223-60.547-19.453 18.882 26.339 49.731 43.518 84.612 43.518 57.474 0 104.065-46.591 104.065-104.065 0-34.881-17.179-65.73-43.518-84.612z" fill="#dd636e"/><path d="m285.433 407.935 14.794-14.794c8.129-8.128 8.129-21.306 0-29.434-8.128-8.128-21.306-8.128-29.433.001l-14.794 14.793-14.793-14.794c-8.129-8.129-21.307-8.128-29.434-.001-8.128 8.128-8.128 21.307-.001 29.434l14.794 14.794-14.794 14.794c-8.128 8.128-8.128 21.306.001 29.434 4.064 4.064 9.39 6.096 14.717 6.096s10.653-2.032 14.717-6.096l14.793-14.793 14.794 14.794c4.064 4.065 9.389 6.096 14.717 6.096 5.326 0 10.653-2.033 14.717-6.096 8.129-8.128 8.129-21.307 0-29.434z" fill="#e4f6ff"/></g></g></svg>