<svg id="Capa_1" enable-background="new 0 0 512 512" height="512" viewBox="0 0 512 512" width="512" xmlns="http://www.w3.org/2000/svg"><g><g><path d="m3.806 233.151v21.529h32.806v76.888h92.266v-76.888h32.806v-21.529c0-27.177-22.031-49.209-49.209-49.209h-59.46c-27.178 0-49.209 22.032-49.209 49.209z" fill="#90d8f9"/><g fill="#6bbef6"><path d="m108.374 331.568h20.504v-87.14c0-5.662-4.59-10.252-10.252-10.252-5.662 0-10.252 4.59-10.252 10.252z"/><path d="m112.475 183.942h-20.504c27.177 0 49.209 22.031 49.209 49.209v21.529h20.504v-21.529c-.001-27.177-22.032-49.209-49.209-49.209z"/></g><g fill="#ffddce"><path d="m161.683 254.68h-32.806v76.889c0 9.059 7.344 16.403 16.403 16.403 9.059 0 16.403-7.344 16.403-16.403z"/><path d="m36.612 254.68h-32.806v76.889c0 9.059 7.344 16.403 16.403 16.403 9.059 0 16.403-7.344 16.403-16.403z"/><circle cx="82.745" cy="142.935" r="41.007"/></g><path d="m101.356 106.398c2.852 5.587 4.47 11.908 4.47 18.611 0 22.648-18.36 41.007-41.007 41.007-6.703 0-13.024-1.619-18.611-4.47 6.783 13.29 20.592 22.396 36.537 22.396 22.648 0 41.007-18.36 41.007-41.007 0-15.945-9.107-29.753-22.396-36.537z" fill="#ffcbbe"/><path d="m36.612 331.568h92.266v147.626h-92.266z" fill="#e7a561"/><path d="m108.374 331.568h20.504v147.626h-20.504z" fill="#e49542"/><path d="m128.878 512h-46.133v-32.806h46.133c5.662 0 10.252 4.59 10.252 10.252v12.302c-.001 5.662-4.59 10.252-10.252 10.252z" fill="#6bbef6"/><path d="m36.612 512h46.133v-32.806h-46.133c-5.662 0-10.252 4.59-10.252 10.252v12.302c0 5.662 4.59 10.252 10.252 10.252z" fill="#90d8f9"/></g><g><path d="m350.317 233.151v21.529h32.806v76.888h92.266v-76.888h32.806v-21.529c0-27.177-22.031-49.209-49.209-49.209h-59.46c-27.178 0-49.209 22.032-49.209 49.209z" fill="#e28086"/><g fill="#dd636e"><path d="m454.885 331.568h20.504v-87.14c0-5.662-4.59-10.252-10.252-10.252-5.662 0-10.252 4.59-10.252 10.252z"/><path d="m458.986 183.942h-20.504c27.177 0 49.209 22.031 49.209 49.209v21.529h20.504v-21.529c-.001-27.177-22.032-49.209-49.209-49.209z"/></g><g fill="#ffddce"><path d="m508.194 254.68h-32.806v76.889c0 9.059 7.344 16.403 16.403 16.403 9.059 0 16.403-7.344 16.403-16.403z"/><path d="m383.122 254.68h-32.806v76.889c0 9.059 7.344 16.403 16.403 16.403 9.059 0 16.403-7.344 16.403-16.403z"/><circle cx="429.255" cy="142.935" r="41.007"/></g><path d="m447.866 106.398c2.852 5.587 4.47 11.908 4.47 18.611 0 22.648-18.36 41.007-41.007 41.007-6.703 0-13.024-1.619-18.611-4.47 6.783 13.29 20.592 22.396 36.537 22.396 22.648 0 41.007-18.36 41.007-41.007.001-15.945-9.106-29.753-22.396-36.537z" fill="#ffcbbe"/><path d="m383.122 331.568h92.266v147.626h-92.266z" fill="#90d8f9"/><path d="m454.885 331.568h20.504v147.626h-20.504z" fill="#6bbef6"/><path d="m475.388 512h-46.133v-32.806h46.133c5.662 0 10.252 4.59 10.252 10.252v12.302c0 5.662-4.59 10.252-10.252 10.252z" fill="#26457d"/><path d="m383.122 512h46.133v-32.806h-46.133c-5.662 0-10.252 4.59-10.252 10.252v12.302c.001 5.662 4.59 10.252 10.252 10.252z" fill="#30579d"/></g><path d="m36.611 254.68v-20.503c0-4.204-3.408-7.611-7.611-7.611s-7.611 3.408-7.611 7.611v20.503z" fill="#6bbef6"/><path d="m96.072 358.813h-26.655c-4.204 0-7.611 3.408-7.611 7.612s3.408 7.611 7.611 7.611h5.716v105.158h15.223v-105.158h5.716c4.204 0 7.611-3.408 7.611-7.611s-3.407-7.612-7.611-7.612z" fill="#e49542"/><path d="m383.122 254.68v.001-.001-20.503c0-4.204-3.408-7.611-7.612-7.611s-7.611 3.408-7.611 7.611v20.503z" fill="#dd636e"/><path d="m442.583 358.813h-26.655c-4.204 0-7.612 3.408-7.612 7.612s3.408 7.611 7.612 7.611h5.716v105.158h15.223v-105.158h5.716c4.204 0 7.611-3.408 7.611-7.611s-3.408-7.612-7.611-7.612z" fill="#6bbef6"/><path d="m360.825 137.553-25.629-25.629c-2.972-2.972-7.792-2.972-10.764 0-2.973 2.972-2.973 7.792 0 10.764l12.636 12.636h-162.135l12.636-12.636c2.973-2.972 2.973-7.792 0-10.764-2.972-2.972-7.792-2.972-10.764 0l-25.629 25.629c-2.973 2.972-2.973 7.792 0 10.764l25.629 25.63c1.486 1.487 3.434 2.229 5.382 2.229 1.947 0 3.896-.743 5.382-2.229 2.973-2.972 2.973-7.792 0-10.764l-12.636-12.636h162.134l-12.636 12.636c-2.973 2.972-2.973 7.792 0 10.764 1.486 1.486 3.434 2.229 5.382 2.229s3.896-.743 5.382-2.229l25.629-25.63c2.973-2.972 2.973-7.792.001-10.764z" fill="#95d6a4"/><g><g><g><path d="m290.149 80.834c-3.913 0-7.373-2.486-8.62-6.198-.03-.09-.058-.179-.085-.27l-11.427-38.73-6.935 38.426c-.746 4.138-4.711 6.882-8.842 6.139-4.137-.747-6.886-4.706-6.139-8.842l11.532-63.893c.796-4.141 4.218-7.165 8.337-7.441 4.112-.264 7.914 2.265 9.229 6.178.03.089.058.179.085.27l12.764 43.262 12.31-43.184c.025-.088.052-.176.08-.263 1.274-3.925 5.041-6.493 9.162-6.272 4.12.233 7.574 3.22 8.398 7.263l12.233 64.004c.789 4.129-1.918 8.116-6.048 8.905-4.129.789-8.116-1.918-8.905-6.048l-7.368-38.554-11.032 38.7c-.025.088-.052.176-.08.263-1.214 3.74-4.671 6.266-8.603 6.286-.015-.001-.03-.001-.046-.001z" fill="#e28086"/></g></g><g><g><path d="m202 80.848c-12.645 0-13.604-.32-14.605-.654-2.503-.835-4.376-2.733-5.137-5.207-1.291-4.2.579-6.65 4.679-12.017 3.267-4.277 9.346-12.238 19.536-26.796 3.262-4.879 5.268-8.261 5.775-12.506-.216-4.693-4.101-8.444-8.846-8.444-4.223 0-7.877 2.999-8.689 7.13-.81 4.124-4.81 6.812-8.936 6.002-4.125-.81-6.812-4.811-6.002-8.936 2.211-11.253 12.147-19.42 23.627-19.42 13.277 0 24.078 10.801 24.078 24.078-.035 1.103-.316 3.122-.515 4.209-1.187 5.117-3.886 10.708-8.021 16.615-6.504 9.293-11.37 15.954-14.916 20.706 5.58-.013 12.213-.066 18.473-.145 4.2-.084 7.654 3.312 7.707 7.515s-3.312 7.654-7.515 7.707c-9.115.115-15.785.163-20.693.163z" fill="#e28086"/></g></g></g></g></svg>