<svg id="Flat" height="512" viewBox="0 0 64 64" width="512" xmlns="http://www.w3.org/2000/svg"><g id="Color_copy" data-name="Color copy"><path d="m49.91 43.04a2.494 2.494 0 0 1 -3.06 1.77l-2.9-.78a2.5 2.5 0 0 1 -1.29 4.83l-2.9-.78a2.5 2.5 0 1 1 -1.29 4.83l-15.6-4.17a14.256 14.256 0 0 1 -5.75-3.1 14.236 14.236 0 0 0 -5.75-3.09l-8.37-2.24v-16.57l12.57 3.37a39.364 39.364 0 0 0 6.47 1.17 6.977 6.977 0 0 0 4.96-1.45l2.29-1.8a8.632 8.632 0 0 1 7.55-1.54l4.44 1.19a1.1 1.1 0 0 1 .77 1.36 3.913 3.913 0 0 1 -4.68 2.77 4.058 4.058 0 0 0 -3.68.79l-1.15 1.02 14 3.75a2.5 2.5 0 0 1 -1.29 4.83l2.9.78a2.5 2.5 0 0 1 1.76 3.06z" fill="#edb88e"/><path d="m48.15 39.98-2.9-.78a2.5 2.5 0 0 0 1.29-4.83l-14-3.75 1.15-1.02a4.058 4.058 0 0 1 3.68-.79 3.913 3.913 0 0 0 4.68-2.77 1.1 1.1 0 0 0 -.77-1.36l-4.44-1.19a8.628 8.628 0 0 0 -6.965 1.134l-.009.045a6.4 6.4 0 0 1 -5.222 5.057 6.4 6.4 0 0 0 -2.944 1.315l-1.947 1.559a6.4 6.4 0 0 1 -4 1.4 7.755 7.755 0 0 1 -7.753-7.756v-1.163l-5-1.341v16.57l8.37 2.24a14.236 14.236 0 0 1 5.75 3.09 14.256 14.256 0 0 0 5.75 3.1l15.6 4.17a2.5 2.5 0 1 0 1.29-4.83l2.9.78a2.5 2.5 0 0 0 1.29-4.83l2.9.78a2.5 2.5 0 0 0 1.3-4.83z" fill="#da9367"/><path d="m46 35h-16l4-19h8z" fill="#00b4d8"/><path d="m46 35h-16l4-19h8l.42 2.01a4.657 4.657 0 0 0 -4.42 4.65v1.32a6.282 6.282 0 0 0 6.98 6.24h.01z" fill="#0096c7"/><path d="m38 33a3.962 3.962 0 0 0 -2.5.9 4 4 0 1 0 0 6.2 3.992 3.992 0 1 0 2.5-7.1z" fill="#00b4d8"/><path d="m56 43a2.985 2.985 0 0 0 -4.08-2.792 4.953 4.953 0 0 0 -1.264-2.6 3.993 3.993 0 0 0 -7.288-3.267 2.995 2.995 0 1 0 -1.368 5.659c.035 0 .068-.009.1-.01a4.974 4.974 0 0 0 2.629 5.442 4.885 4.885 0 0 0 -.279 4.623 5 5 0 1 0 5.1 2.89 4.958 4.958 0 0 0 4-7 3 3 0 0 0 2.45-2.945z" fill="#ade8f4"/><path d="m46.072 53.86a4.964 4.964 0 0 1 2.444-5.177 3.038 3.038 0 0 0 1.484-2.661v-.022a4.8 4.8 0 0 1 .121-1.073 2.686 2.686 0 0 0 -.446-2.161 3.705 3.705 0 0 1 -.5-1.075l-.44-1.377a5.157 5.157 0 0 0 -2.311-2.759 3 3 0 0 1 -1.4-2.971 3.045 3.045 0 0 1 2.2-2.479 2.7 2.7 0 0 1 .3-.051 3.9 3.9 0 0 0 -.524-.054 3.992 3.992 0 0 0 -3.632 2.344 2.995 2.995 0 1 0 -1.368 5.656c.035 0 .068-.009.1-.01a4.974 4.974 0 0 0 2.629 5.442 4.885 4.885 0 0 0 -.279 4.623 4.987 4.987 0 1 0 4.758 7.623 5 5 0 0 1 -3.136-3.818z" fill="#48cae4"/><path d="m3 55h8.646a14.213 14.213 0 0 1 6.354 1.5 14.213 14.213 0 0 0 6.354 1.5h16.146a2.5 2.5 0 0 0 0-5h3a2.5 2.5 0 0 0 0-5h3a2.5 2.5 0 0 0 0-5h-3a2.5 2.5 0 0 0 0-5h-14.5l.854-1.281a4.058 4.058 0 0 1 3.346-1.719 3.91 3.91 0 0 0 3.8-3.886 1.1 1.1 0 0 0 -1.092-1.114h-4.6a8.615 8.615 0 0 0 -6.891 3.446l-1.744 2.325a6.953 6.953 0 0 1 -4.42 2.687 39.8 39.8 0 0 1 -6.553.542h-8.7z" fill="#f9dbaf"/><g fill="#edb88e"><path d="m45 38.51a2.5 2.5 0 0 1 -2.5 2.49h-6.5a2 2 0 0 0 -2 2h9.5a2.493 2.493 0 0 0 1.5-4.49z"/><path d="m48 43.51a2.5 2.5 0 0 1 -2.5 2.49h-9.5a2 2 0 0 0 -2 2h12.5a2.493 2.493 0 0 0 1.5-4.49z"/><path d="m45 48.51a2.5 2.5 0 0 1 -2.5 2.49h-7.5a2 2 0 0 0 -2 2h10.5a2.493 2.493 0 0 0 1.5-4.49z"/><path d="m42 53.51a2.5 2.5 0 0 1 -2.5 2.49h-7.5a16 16 0 0 1 -16-16v-1.24a40.037 40.037 0 0 1 -4.3.24h-8.7v16h8.646a14.213 14.213 0 0 1 6.354 1.5 14.213 14.213 0 0 0 6.354 1.5h16.146a2.493 2.493 0 0 0 1.5-4.49z"/><path d="m29 38 .888-1.332a3.937 3.937 0 0 1 3.274-1.668 3.908 3.908 0 0 0 3.838-3.886 1.1 1.1 0 0 0 -1.092-1.114l-1.024 1.611a4.127 4.127 0 0 1 -2.484 1.789 4.131 4.131 0 0 0 -3 3z"/></g><path d="m34 8h8v8h-8z" fill="#d0d8da"/><path d="m34 3h27v5h-27z" fill="#e9f1f2"/><path d="m26.807 55.031a2.989 2.989 0 1 0 -5.629-2.013c-.06 0-.117-.018-.178-.018a4 4 0 1 0 3.471 5.952 2.495 2.495 0 1 0 2.336-3.921z" fill="#ade8f4"/><circle cx="54" cy="27" fill="#ade8f4" r="3"/><circle cx="52" cy="18" fill="#ade8f4" r="2"/><path d="m28.487 56.005a2.439 2.439 0 0 1 -1.267.894 2.56 2.56 0 0 1 -1.424 0 2.854 2.854 0 0 0 -2.5.367 3.988 3.988 0 0 1 -6-1.749 3.987 3.987 0 0 0 7.18 3.435 2.5 2.5 0 0 0 4.524-1.452 2.456 2.456 0 0 0 -.513-1.495z" fill="#48cae4"/><path d="m37 14a4 4 0 0 1 4-4h1v-2h-8v8h3z" fill="#b8bebf"/><path d="m40 6a3 3 0 0 1 -3-3h-3v5h27v-2z" fill="#d0d8da"/><path d="m56 29a2.987 2.987 0 0 1 -2.242-4.976 2.992 2.992 0 1 0 2.484 4.952c-.082.006-.159.024-.242.024z" fill="#48cae4"/><path d="m53 19a1.992 1.992 0 0 1 -1.82-2.82 2 2 0 1 0 2.64 2.64 1.99 1.99 0 0 1 -.82.18z" fill="#48cae4"/><path d="m35.983 27a1.054 1.054 0 0 1 -.207-.021 1 1 0 0 1 -.776-1.185l.346-1.645a1 1 0 0 1 1.957.413l-.346 1.644a1 1 0 0 1 -.974.794z" fill="#00b4d8"/><path d="m41.631 28.918a1 1 0 0 1 -.978-.794l-1.008-4.794a1 1 0 0 1 1.957-.412l1.008 4.794a1 1 0 0 1 -.772 1.184.978.978 0 0 1 -.207.022z" fill="#48cae4"/><path d="m39 16v2a1 1 0 0 1 -2 0v-2z" fill="#00b4d8"/></g></svg>